<svg width="1584" height="396" viewBox="0 0 1584 396" fill="none" xmlns="http://www.w3.org/2000/svg">
<rect width="1584" height="396" fill="#F5F5F5"/>
<g id="Awesome banner" clip-path="url(#clip0_0_1)">
<rect width="1584" height="396" fill="url(#paint0_linear_0_1)"/>
<ellipse id="Ellipse 2" cx="323" cy="64" rx="285" ry="288" fill="url(#paint1_linear_0_1)" fill-opacity="0.1"/>
<g id="copyright">
<path d="M75.95 334.52L72.30 334.52L72.30 311.16L77.20 311.16L83.70 330.04Q83.60 329.02 83.50 327.62Q83.41 326.23 83.33 324.79Q83.25 323.35 83.25 322.23L83.25 311.16L86.90 311.16L86.90 334.52L82 334.52L75.57 315.64Q75.63 316.57 75.73 317.88Q75.82 319.19 75.89 320.57Q75.95 321.94 75.95 323.10L75.95 334.52M98.80 334.84Q96.46 334.84 94.67 333.96Q92.88 333.08 91.89 331.53Q90.90 329.98 90.90 327.93Q90.90 325.78 92.13 324.18Q93.36 322.58 95.34 322.17L95.34 322.10Q93.65 321.75 92.61 320.38Q91.57 319 91.57 317.11Q91.57 315.26 92.48 313.85Q93.39 312.44 95.02 311.64Q96.66 310.84 98.80 310.84Q100.94 310.84 102.59 311.64Q104.24 312.44 105.15 313.85Q106.06 315.26 106.06 317.11Q106.06 319 105.01 320.38Q103.95 321.75 102.26 322.10L102.26 322.17Q104.24 322.58 105.47 324.18Q106.70 325.78 106.70 327.93Q106.70 329.98 105.71 331.53Q104.72 333.08 102.93 333.96Q101.14 334.84 98.80 334.84M98.80 320.73Q100.30 320.73 101.23 319.82Q102.16 318.90 102.16 317.46Q102.16 315.99 101.23 315.08Q100.30 314.17 98.80 314.17Q97.30 314.17 96.37 315.08Q95.44 315.99 95.44 317.46Q95.44 318.90 96.37 319.82Q97.30 320.73 98.80 320.73M98.80 331.45Q100.56 331.45 101.68 330.42Q102.80 329.40 102.80 327.74Q102.80 326.04 101.68 325Q100.56 323.96 98.80 323.96Q97.04 323.96 95.92 325Q94.80 326.04 94.80 327.74Q94.80 329.40 95.92 330.42Q97.04 331.45 98.80 331.45M114.35 334.52L110.70 334.52L110.70 311.16L115.60 311.16L122.10 330.04Q122 329.02 121.90 327.62Q121.81 326.23 121.73 324.79Q121.65 323.35 121.65 322.23L121.65 311.16L125.30 311.16L125.30 334.52L120.40 334.52L113.97 315.64Q114.03 316.57 114.13 317.88Q114.22 319.19 114.29 320.57Q114.35 321.94 114.35 323.10" fill="white" fill-opacity="0.9"/>
<path d="M161.48 325.24L151.24 325.24L151.24 322.68L161.48 322.68" fill="white" fill-opacity="0.9"/>
<path d="M195.02 334.84Q191.82 334.84 189.96 333.05Q188.11 331.26 188.11 328.12L188.11 317.56Q188.11 314.42 189.96 312.63Q191.82 310.84 195.02 310.84Q198.15 310.84 200.01 312.65Q201.87 314.46 201.87 317.56L198.99 317.56Q198.99 315.58 197.95 314.50Q196.91 313.43 195.02 313.43Q193.13 313.43 192.06 314.50Q190.99 315.58 190.99 317.56L190.99 328.12Q190.99 330.10 192.06 331.18Q193.13 332.25 195.02 332.25Q196.91 332.25 197.95 331.18Q198.99 330.10 198.99 328.12L201.87 328.12Q201.87 331.22 200.01 333.03Q198.15 334.84 195.02 334.84" fill="white" fill-opacity="0.9"/>
<path d="M213.96 334.84Q210.83 334.84 209 333.02Q207.18 331.19 207.18 327.80L207.18 317.88Q207.18 314.49 209 312.66Q210.83 310.84 213.96 310.84Q217.10 310.84 218.92 312.66Q220.75 314.49 220.75 317.85L220.75 327.80Q220.75 331.19 218.92 333.02Q217.10 334.84 213.96 334.84M213.96 332.25Q215.85 332.25 216.86 331.18Q217.87 330.10 217.87 328.12L217.87 317.56Q217.87 315.58 216.86 314.50Q215.85 313.43 213.96 313.43Q212.11 313.43 211.08 314.50Q210.06 315.58 210.06 317.56L210.06 328.12Q210.06 330.10 211.08 331.18Q212.11 332.25 213.96 332.25" fill="white" fill-opacity="0.9"/>
<path d="M228.65 334.52L225.87 334.52L225.87 311.16L230.12 311.16L233.10 321.27L236.20 311.16L240.46 311.16L240.46 334.52L237.67 334.52L237.67 323.48Q237.67 321.91 237.72 319.88Q237.77 317.85 237.87 315.77Q237.96 313.69 238.09 312.02L234.31 324.09L231.82 324.09L228.20 312.31Q228.46 314.68 228.55 317.50Q228.65 320.31 228.65 323.48" fill="white" fill-opacity="0.9"/>
<path d="M247.85 334.52L245.07 334.52L245.07 311.16L249.32 311.16L252.30 321.27L255.40 311.16L259.66 311.16L259.66 334.52L256.87 334.52L256.87 323.48Q256.87 321.91 256.92 319.88Q256.97 317.85 257.07 315.77Q257.16 313.69 257.29 312.02L253.51 324.09L251.02 324.09L247.40 312.31Q247.66 314.68 247.75 317.50Q247.85 320.31 247.85 323.48" fill="white" fill-opacity="0.9"/>
<path d="M271.56 334.84Q268.30 334.84 266.57 333.03Q264.84 331.22 264.84 328.12L264.84 311.16L267.72 311.16L267.72 328.12Q267.72 330.04 268.67 331.16Q269.61 332.28 271.56 332.28Q273.48 332.28 274.44 331.16Q275.40 330.04 275.40 328.12L275.40 311.16L278.28 311.16L278.28 328.12Q278.28 331.26 276.57 333.05Q274.86 334.84 271.56 334.84" fill="white" fill-opacity="0.9"/>
<path d="M286.83 334.52L284.04 334.52L284.04 311.16L287.88 311.16L295.02 331.16Q294.95 330.36 294.87 329.19Q294.79 328.02 294.75 326.73Q294.70 325.43 294.70 324.28L294.70 311.16L297.48 311.16L297.48 334.52L293.64 334.52L286.54 314.52Q286.60 315.29 286.67 316.46Q286.73 317.62 286.78 318.92Q286.83 320.22 286.83 321.40" fill="white" fill-opacity="0.9"/>
<path d="M316.20 334.52L303.72 334.52L303.72 331.90L308.49 331.90L308.49 313.78L303.72 313.78L303.72 311.16L316.20 311.16L316.20 313.78L311.43 313.78L311.43 331.90L316.20 331.90" fill="white" fill-opacity="0.9"/>
<path d="M330.60 334.52L327.72 334.52L327.72 313.78L321.32 313.78L321.32 311.16L337 311.16L337 313.78L330.60 313.78" fill="white" fill-opacity="0.9"/>
<path d="M349.80 334.52L346.92 334.52L346.92 325.78L339.88 311.16L342.95 311.16L347.50 320.76Q347.88 321.56 348.11 322.12Q348.33 322.68 348.39 322.94Q348.46 322.68 348.70 322.12Q348.94 321.56 349.32 320.76L353.87 311.16L356.84 311.16L349.80 325.78" fill="white" fill-opacity="0.9"/>
<path d="M382.83 334.52L380.04 334.52L380.04 311.16L383.88 311.16L391.02 331.16Q390.95 330.36 390.87 329.19Q390.79 328.02 390.75 326.73Q390.70 325.43 390.70 324.28L390.70 311.16L393.48 311.16L393.48 334.52L389.64 334.52L382.54 314.52Q382.60 315.29 382.67 316.46Q382.73 317.62 382.78 318.92Q382.83 320.22 382.83 321.40" fill="white" fill-opacity="0.9"/>
<path d="M405.96 334.84Q402.83 334.84 401 333.02Q399.18 331.19 399.18 327.80L399.18 317.88Q399.18 314.49 401 312.66Q402.83 310.84 405.96 310.84Q409.10 310.84 410.92 312.66Q412.75 314.49 412.75 317.85L412.75 327.80Q412.75 331.19 410.92 333.02Q409.10 334.84 405.96 334.84M405.96 332.25Q407.85 332.25 408.86 331.18Q409.87 330.10 409.87 328.12L409.87 317.56Q409.87 315.58 408.86 314.50Q407.85 313.43 405.96 313.43Q404.11 313.43 403.08 314.50Q402.06 315.58 402.06 317.56L402.06 328.12Q402.06 330.10 403.08 331.18Q404.11 332.25 405.96 332.25" fill="white" fill-opacity="0.9"/>
<path d="M424.55 334.52L418.51 334.52L418.51 311.16L424.55 311.16Q426.83 311.16 428.47 312.02Q430.12 312.89 431.03 314.46Q431.95 316.02 431.95 318.17L431.95 327.48Q431.95 329.62 431.03 331.21Q430.12 332.79 428.47 333.66Q426.83 334.52 424.55 334.52M421.39 313.72L421.39 331.96L424.55 331.96Q426.67 331.96 427.87 330.78Q429.07 329.59 429.07 327.48L429.07 318.17Q429.07 316.09 427.87 314.90Q426.67 313.72 424.55 313.72" fill="white" fill-opacity="0.9"/>
<path d="M451.40 334.52L437.96 334.52L437.96 311.16L451.40 311.16L451.40 313.78L440.81 313.78L440.81 321.02L450.28 321.02L450.28 323.58L440.81 323.58L440.81 331.90L451.40 331.90" fill="white" fill-opacity="0.9"/>
<path d="M463.69 334.84Q460.30 334.84 458.28 333.05Q456.27 331.26 456.27 328.12L459.15 328.12Q459.15 330.07 460.39 331.18Q461.64 332.28 463.69 332.28Q465.67 332.28 466.86 331.13Q468.04 329.98 468.04 328.12Q468.04 326.71 467.29 325.67Q466.54 324.63 465.13 324.25L461.58 323.26Q459.37 322.62 458.11 320.97Q456.84 319.32 456.84 317.08Q456.84 315.22 457.67 313.82Q458.51 312.41 460.01 311.62Q461.51 310.84 463.47 310.84Q465.45 310.84 466.97 311.62Q468.49 312.41 469.35 313.80Q470.22 315.19 470.22 317.02L467.34 317.02Q467.34 315.42 466.25 314.41Q465.16 313.40 463.47 313.40Q461.77 313.40 460.71 314.41Q459.66 315.42 459.66 317.02Q459.66 318.30 460.35 319.21Q461.03 320.12 462.28 320.47L465.93 321.50Q468.27 322.14 469.56 323.91Q470.86 325.69 470.86 328.12Q470.86 331.19 468.91 333.02Q466.95 334.84 463.69 334.84" fill="white" fill-opacity="0.9"/>
</g>
<path d="M81.88 197.64L72.52 197.64L72.52 195.67L76.10 195.67L76.10 182.09L72.52 182.09L72.52 180.12L81.88 180.12L81.88 182.09L78.30 182.09L78.30 195.67L81.88 195.67" fill="white" fill-opacity="0.7"/>
<path d="M91.14 197.64L86.61 197.64L86.61 180.12L91.14 180.12Q92.85 180.12 94.08 180.77Q95.32 181.42 96 182.59Q96.69 183.77 96.69 185.38L96.69 192.36Q96.69 193.97 96 195.16Q95.32 196.34 94.08 196.99Q92.85 197.64 91.14 197.64M88.77 182.04L88.77 195.72L91.14 195.72Q92.73 195.72 93.63 194.83Q94.53 193.94 94.53 192.36L94.53 185.38Q94.53 183.82 93.63 182.93Q92.73 182.04 91.14 182.04" fill="white" fill-opacity="0.7"/>
<path d="M110.56 197.64L108.40 197.64L108.40 193.80L100.48 193.80L100.48 190.42L106.86 180.12L109.31 180.12L102.64 190.90L102.64 191.83L108.40 191.83L108.40 187.56L110.56 187.56" fill="white" fill-opacity="0.7"/>
<path d="M126.52 197.64L115.24 197.64L115.24 195.67L119.92 195.67L119.92 186.41L115.72 186.41L115.72 184.44L122.08 184.44L122.08 195.67L126.52 195.67L126.52 197.64M120.76 182.06Q119.97 182.06 119.51 181.66Q119.06 181.25 119.06 180.55Q119.06 179.83 119.51 179.41Q119.97 178.99 120.76 178.99Q121.55 178.99 122.01 179.41Q122.46 179.83 122.46 180.55Q122.46 181.25 122.01 181.66Q121.55 182.06 120.76 182.06" fill="white" fill-opacity="0.7"/>
<path d="M146.39 197.64L144.23 197.64L144.23 180.12L146.39 180.12L146.39 187.61L152.01 187.61L152.01 180.12L154.17 180.12L154.17 197.64L152.01 197.64L152.01 189.58L146.39 189.58" fill="white" fill-opacity="0.7"/>
<path d="M164.68 197.64L162.52 197.64L162.52 182.09L157.72 182.09L157.72 180.12L169.48 180.12L169.48 182.09L164.68 182.09" fill="white" fill-opacity="0.7"/>
<path d="M179.08 197.64L176.92 197.64L176.92 182.09L172.12 182.09L172.12 180.12L183.88 180.12L183.88 182.09L179.08 182.09" fill="white" fill-opacity="0.7"/>
<path d="M189.57 197.64L187.41 197.64L187.41 180.12L193.05 180.12Q195.50 180.12 196.95 181.52Q198.40 182.93 198.40 185.28Q198.40 187.63 196.95 189.04Q195.50 190.44 193.05 190.44L189.57 190.44L189.57 197.64M189.57 182.06L189.57 188.50L193.05 188.50Q194.46 188.50 195.32 187.62Q196.17 186.74 196.17 185.28Q196.17 183.79 195.32 182.93Q194.46 182.06 193.05 182.06" fill="white" fill-opacity="0.7"/>
<path d="M217.41 197.64L215.20 197.64L219.76 180.12L222.66 180.12L227.20 197.64L225.02 197.64L223.86 192.98L218.56 192.98L217.41 197.64M220.34 185.74L218.99 191.16L223.41 191.16L222.06 185.76Q221.68 184.22 221.46 183.19Q221.25 182.16 221.20 181.85Q221.15 182.16 220.94 183.19Q220.72 184.22 220.34 185.74" fill="white" fill-opacity="0.7"/>
<path d="M232.77 197.64L230.61 197.64L230.61 180.12L236.25 180.12Q238.70 180.12 240.15 181.52Q241.60 182.93 241.60 185.28Q241.60 187.63 240.15 189.04Q238.70 190.44 236.25 190.44L232.77 190.44L232.77 197.64M232.77 182.06L232.77 188.50L236.25 188.50Q237.66 188.50 238.52 187.62Q239.37 186.74 239.37 185.28Q239.37 183.79 238.52 182.93Q237.66 182.06 236.25 182.06" fill="white" fill-opacity="0.7"/>
<path d="M254.68 197.64L245.32 197.64L245.32 195.67L248.90 195.67L248.90 182.09L245.32 182.09L245.32 180.12L254.68 180.12L254.68 182.09L251.10 182.09L251.10 195.67L254.68 195.67" fill="white" fill-opacity="0.7"/>
<path d="M109.90 136.06L71.70 136.06L71.70 127.42L86 127.42L86 74.62L71.70 74.62L71.70 65.98L109.90 65.98L109.90 74.62L95.60 74.62L95.60 127.42L109.90 127.42L109.90 136.06M146.86 136.06L128.05 136.06L128.05 65.98L146.86 65.98Q153.68 65.98 158.72 68.62Q163.76 71.26 166.54 76.01Q169.33 80.76 169.33 87.20L169.33 114.75Q169.33 121.18 166.54 125.98Q163.76 130.78 158.72 133.42Q153.68 136.06 146.86 136.06M137.55 74.43L137.55 127.61L146.86 127.61Q152.91 127.61 156.37 124.16Q159.82 120.70 159.82 114.75L159.82 87.20Q159.82 81.24 156.37 77.84Q152.91 74.43 146.86 74.43L137.55 74.43M224.72 136.06L215.22 136.06L215.22 121.08L183.63 121.08L183.63 106.59L209.26 65.98L220.02 65.98L193.04 108.80L193.04 112.54L215.22 112.54L215.22 95.74L224.72 95.74L224.72 136.06M282.70 136.06L244.50 136.06L244.50 127.42L258.80 127.42L258.80 74.62L244.50 74.62L244.50 65.98L282.70 65.98L282.70 74.62L268.40 74.62L268.40 127.42L282.70 127.42" fill="url(#paint2_linear_0_1)"/>
<g id="Group 1">
<rect id="Rectangle 1" x="26" y="168" width="12" height="184" rx="5" fill="url(#paint3_linear_0_1)" fill-opacity="0.9"/>
</g>
<g id="Group 1_2">
<rect id="Rectangle 2" x="26" y="38" width="12" height="119" rx="5" fill="url(#paint4_linear_0_1)" fill-opacity="0.9"/>
</g>
<ellipse id="Ellipse 1" cx="148.5" cy="573" rx="215.5" ry="214" fill="url(#paint5_linear_0_1)" fill-opacity="0.4"/>
<rect id="Rectangle 3" x="1229" y="48" width="300" height="300" rx="25" fill="#FFFBFB" fill-opacity="0.9"/>
<g id="placeholder-logo"><g transform="translate(1229,48) translate(0.0,60.0) scale(1.2000)"><g fill="#666"><path d="M88.05 27.65c-3.15 4-3.2 51.2-.05 54.35 2.75 2.75 71.7 3.15 74.45.45 2.85-2.9 2.3-53.85-.65-55.9-1.95-1.35-7.15-1.55-36.95-1.55h-34.7l-2.1 2.65zM157.5 31c.65 0 1 8.6 1 23.75V78.5h-66l-.25-23c-.15-12.6-.1-23.45.15-24.1.35-.85 8.9-1.05 32.25-.75 17.55.2 32.3.35 32.85.35z"/><path d="M99.15 37.3c-6.85 7.35 4.25 17.35 11.4 10.25C111.9 46.2 113 43.9 113 42.5c0-6.45-9.35-9.95-13.85-5.2zM135 42.5c-.7.85-5.25 5.15-10.1 9.6l-8.85 8.1-3.2-3.2-3.15-3.15-6.35 6.3C97.8 65.65 97 66.9 97 70.2V74h57V56.85l-8.15-7.7c-9.35-8.85-9.15-8.7-10.85-6.65zm7.25 15.2c.95.9 1.75 2.9 1.75 4.45 6.35-5.05 4.75-7.15 4.9-11.55.95 0 0 0 0 0l-6.65 7.1zM53.65 110.75c.1 4.8.45 8.65.75 8.5.35-.15 1.3-.25 2.1-.25 1.1 0 1.5-1.2 1.5-4.75v-4.75l3.25 5c4.9 7.5 6.2 6.75 6.55-3.75.25-8.15.15-8.75-1.7-8.75-1.65 0-2.05.8-2.3 4.75l-.3 4.75-2.8-4.75c-4.85-8.25-7.25-6.9-7.05 4zM91 108.9c0 9.65.3 10.1 6.1 10.1s7.15-2.65 1.65-3.2l-3.25-.3-.3-6.75c-.25-5.95-.55-6.75-2.25-6.75-1.75 0-1.95.7-1.95 6.9zM151 102.45c0 .25 1 2.15 2.25 4.2 1.2 2.1 2.45 5.8 2.75 8.25.65 5.9 4 6.95 4 1.25.05-2.1 1.25-5.85 2.95-8.9l2.9-5.25h-2.5c-1.8 0-2.8.85-3.75 3.1l-1.3 3.05-1.25-3.05c-1.1-2.6-6.05-4.8-6.05-2.65zM191 107.45c0 9.05 3.4 8.85 4.25-.2.45-5 .35-5.25-1.9-5.25-2.2 0-2.35.4-2.35 5.45zM180.8 104.75c-1.3 5.35.65 13.6 3.45 14.35 2.3.6 2.75.4 2.75-1.2 0-1.05-.45-1.9-1-1.9s-1-1.6-1-3.5c0-1.95.45-3.5 1-3.5s1-.7 1-1.5c0-.85-.45-1.5-1-1.5s-1-.7-1-1.5c0-2.1-3.65-1.9-4.2.25zM71.55 106.55c-2.2 2.25-2.05 9.7.3 11.8 4.5 4.1 10.15.75 10.15-6.1 0-4.85-2-7.25-6-7.25-1.55 0-3.55.7-4.45 1.55zm6.25 5.8c.25 3.05 0 3.65-1.6 3.65-2.3 0-3.25-2.65-2.05-5.85 1.25-3.35 3.3-2.1 3.65 2.2zM105.75 106.1c-2.5 1.45-2.45 9.95.1 12.25 4.3 3.9 10.15.35 10.15-6.2 0-6-5.15-9.05-10.25-6.05zm6.05 6.25c.25 3.05 0 3.65-1.6 3.65-2.3 0-3.25-2.65-2.05-5.85 1.25-3.35 3.3-2.1 3.65 2.2zM119.2 106.2c-3.8 3.8-.4 12.55 4.4 11.35 1.9-.45 2.45-.3 2.15.65-.25.7-1.55 1.2-2.85 1.1-4.05-.3-5.35.45-3.85 2.25.85 1.05 2.6 1.45 5.35 1.25l4.1-.3.3-8.75.3-8.75h-4.35c-2.4 0-4.9.55-5.55 1.2zm6.6 4.45c.4 2.85-2.15 4.85-3.75 2.95-.9-1.1-.9-2-.05-3.6 1.35-2.5 3.4-2.15 3.8.65zM133.55 106.55c-2.2 2.25-2.05 9.7.3 11.8 4.5 4.1 10.15.75 10.15-6.1 0-4.85-2-7.25-6-7.25-1.55 0-3.55.7-4.45 1.55zm6.25 5.8c.25 3.05 0 3.65-1.6 3.65-2.3 0-3.25-2.65-2.05-5.85 1.25-3.35 3.3-2.1 3.65 2.2zM167.65 106.85c-3.9 4.3-.75 13.15 4.7 13.15 2.4 0 5.65-2.75 5.65-4.85 0-1.4-2.65-1.55-3.5-.15-.95 1.55-4.5 1.15-4.5-.5 0-1.1 1.1-1.5 4-1.5 3.15 0 4-.35 4-1.8 0-5.3-6.85-8.25-10.35-4.35z"/><path d="M191 117.5c0 2.15.4 2.6 2.25 2.3 1.5-.2 2.25-1 2.25-2.3 0-1.3-.75-2.1-2.25-2.3-1.85-.3-2.25.15-2.25 2.3z"/></g></g></g>
</g>
<defs>
<linearGradient id="paint0_linear_0_1" x1="0" y1="198" x2="1584" y2="198" gradientUnits="userSpaceOnUse">
<stop stop-color="#3D052C"/>
<stop offset="1"/>
</linearGradient>
<linearGradient id="paint1_linear_0_1" x1="323" y1="-224" x2="323" y2="352" gradientUnits="userSpaceOnUse">
<stop stop-color="#28F6F2" stop-opacity="0.4"/>
<stop offset="1" stop-color="#17908E" stop-opacity="0.7"/>
</linearGradient>
<linearGradient id="paint2_linear_0_1" x1="148.5" y1="38" x2="148.5" y2="140" gradientUnits="userSpaceOnUse">
<stop stop-color="white"/>
<stop offset="1" stop-color="#999999"/>
</linearGradient>
<linearGradient id="paint3_linear_0_1" x1="38" y1="260" x2="26" y2="260" gradientUnits="userSpaceOnUse">
<stop stop-color="#D9D9D9"/>
<stop offset="1" stop-color="#737373"/>
</linearGradient>
<linearGradient id="paint4_linear_0_1" x1="38" y1="97.5" x2="26" y2="97.5" gradientUnits="userSpaceOnUse">
<stop stop-color="#D9D9D9"/>
<stop offset="1" stop-color="#737373"/>
</linearGradient>
<linearGradient id="paint5_linear_0_1" x1="27.5" y1="434.5" x2="148.5" y2="787" gradientUnits="userSpaceOnUse">
<stop stop-color="#2E21BC"/>
<stop offset="1" stop-color="#150F56"/>
</linearGradient>
<clipPath id="clip0_0_1">
<rect width="1584" height="396" fill="white"/>
</clipPath>
</defs>
</svg>
